<svg width="346" height="101" viewBox="0 0 346 101" fill="none" xmlns="http://www.w3.org/2000/svg">
<path d="M65.7417 66.5926C51.3084 80.7369 38.9604 89.5912 28.6964 93.1573C18.4333 96.7224 10.8135 96.4046 5.83955 92.2093C0.866632 88.0104 -0.930243 81.3412 0.448924 72.1989C1.54267 65.874 4.23018 59.1306 8.51507 51.9724C12.7963 44.8136 18.0724 38.1005 24.3406 31.8322C30.6078 25.5661 37.3068 20.5776 44.4369 16.868C51.5672 13.1586 58.5245 11.564 65.3093 12.0813C71.1182 12.8306 74.2937 14.8133 74.8406 18.0328C75.3864 21.2536 74.324 25.0484 71.6494 29.4182C68.976 33.789 65.6973 38.1005 61.8172 42.3552C57.936 46.6109 54.4552 50.1604 51.3812 53.0068C48.3041 55.8541 46.6806 57.3349 46.5073 57.4489C45.0697 58.1406 43.9057 58.2828 43.014 57.8812C42.1218 57.4797 41.5177 56.8333 41.2026 55.9406C40.8864 55.0484 40.8718 54.1718 41.1598 53.3082C42.0792 51.124 43.101 49.6432 44.2224 48.8666C45.3432 48.0912 46.5073 47.5302 47.7156 47.1849C49.0374 46.8412 50.3016 46.2073 51.5098 45.2885C55.9942 41.2062 60.2354 36.8073 64.2328 32.0916C68.2276 27.3776 70.6286 23.2661 71.4344 19.7578C72.239 16.2506 70.1401 14.2093 65.1374 13.6333C56.0516 12.944 47.1973 15.7186 38.5724 21.9568C29.9473 28.1964 22.5297 36.0312 16.3197 45.4609C10.1104 54.8916 6.14267 64.063 4.41611 72.9749C2.92132 81.8864 4.47341 88.0964 9.07496 91.6041C13.674 95.112 20.7614 94.953 30.3354 91.1302C39.9098 87.3057 51.424 78.8109 64.8786 65.6421C64.9932 65.5286 65.1374 65.4702 65.3093 65.4702C65.4828 65.4702 65.626 65.5286 65.7417 65.6421C65.8562 65.8161 65.9281 65.9745 65.9568 66.1177C65.9854 66.262 65.9136 66.4193 65.7417 66.5926" fill="#9A7D5A"/>
<path d="M110.768 11.8213C106.8 12.34 102.704 14.684 98.4775 18.8516C94.251 23.0208 90.2406 28.0531 86.4463 33.9453C82.6504 39.8412 79.3734 45.6188 76.613 51.2828C73.8526 56.9469 71.9838 61.5604 71.0062 65.1249C73.4212 63.6885 78.0644 60.324 84.9368 55.0349C91.8067 49.7437 98.4056 43.1891 104.73 35.3683C109.617 28.7583 112.522 23.1213 113.442 18.4636C113.843 16.5667 113.929 15.0427 113.7 13.892C113.298 12.284 112.321 11.5947 110.768 11.8213V11.8213ZM62.554 76.6828C62.4983 70.762 64.639 63.3136 68.9802 54.3437C73.3212 45.3735 78.5114 36.8495 84.5488 28.7719C90.5854 20.6937 96.0764 15.0427 101.022 11.8213C104.127 9.984 106.986 9.22134 109.604 9.53734C112.22 9.85467 113.816 11.2773 114.392 13.8053C114.619 15.072 114.533 16.652 114.132 18.5505C113.21 23.3803 110.278 29.1307 105.334 35.8011C98.4343 44.2536 91.3327 51.2115 84.0306 56.6724C76.7275 62.136 72.2702 65.2984 70.6624 66.1599C69.6832 69.8412 69.2234 73.0599 69.2822 75.8213C70.028 75.188 70.8343 74.4984 71.6972 73.7511C74.2259 71.5079 76.942 69.2656 79.8472 67.0235C82.751 64.7812 85.3526 63.3136 87.653 62.624C90.4135 62.0505 92.4838 62.4661 93.863 63.8755C95.2431 65.2855 96.4212 67.0812 97.3994 69.2656C99.9291 73.9229 102.847 76.3527 106.153 76.5531C109.46 76.7563 112.894 75.7052 116.462 73.4052C120.025 71.1057 123.447 68.5183 126.723 65.6421C126.897 65.5287 127.07 65.3839 127.242 65.212C127.299 65.1563 127.385 65.1407 127.501 65.1697C127.616 65.1984 127.701 65.2407 127.759 65.2984C127.816 65.3568 127.846 65.4416 127.846 65.5579C127.846 65.6735 127.788 65.7583 127.673 65.8161C127.557 65.874 127.442 65.9593 127.329 66.0755C123.821 69.1219 120.183 71.8683 116.418 74.3115C112.65 76.7563 109.001 77.876 105.463 77.6755C101.928 77.4745 98.8083 74.8713 96.1051 69.8697C94.3811 66.0755 92.2963 64.2052 89.8526 64.2636C87.4072 64.3213 84.8354 65.4281 82.1322 67.5833C79.4306 69.7407 76.842 72.112 74.3707 74.6995C72.5868 76.5401 70.9488 78.1057 69.454 79.3995C67.9578 80.6937 66.6947 81.3697 65.6598 81.4271C64.8551 81.4271 64.1504 81.0661 63.5452 80.3473C62.942 79.6303 62.6114 78.4073 62.554 76.6828" fill="#9A7D5A"/>
<path d="M136.044 61.2432C134.951 61.9926 133.931 62.912 132.981 64.0052C132.032 65.0978 131.356 66.276 130.955 67.5406C131.3 66.5057 131.688 65.8297 132.119 65.5136C132.55 65.1984 132.967 65.0536 133.371 65.0822C133.772 65.112 134.147 65.212 134.491 65.3839C134.664 65.4416 134.821 65.5 134.965 65.5579C135.108 65.6156 135.237 65.6156 135.353 65.5579C136.735 64.8104 137.769 63.9912 138.457 63.0994C139.149 62.2068 139.493 61.4598 139.493 60.8552C139.493 60.253 139.177 60.0079 138.545 60.1235C137.797 60.2953 136.963 60.6697 136.044 61.2432V61.2432ZM140.96 59.0016C141.477 60.612 141.016 62.1645 139.579 63.6593C138.141 65.1562 136.504 66.3473 134.664 67.2396C132.822 68.1302 131.528 68.5182 130.782 68.4021C130.725 68.6916 130.696 68.95 130.696 69.1781C130.696 69.4098 130.696 69.6693 130.696 69.9546C130.811 71.0478 131.156 71.9109 131.731 72.5426C133.628 74.6125 136.432 75.5052 140.14 75.2172C143.849 74.9297 147.732 73.6082 151.785 71.2484C155.839 68.8921 159.101 66.7932 161.573 64.953C161.688 64.8969 161.791 64.8661 161.876 64.8661C161.961 64.8661 162.033 64.9245 162.092 65.0401C162.148 65.0979 162.164 65.1828 162.133 65.2984C162.105 65.4145 162.063 65.5 162.005 65.5579C159.245 67.5703 155.58 69.8254 151.008 72.3276C146.437 74.8286 142.081 76.2526 137.941 76.5964C133.801 76.9416 130.725 76.051 128.712 73.9229C126.873 71.2797 126.571 68.3464 127.807 65.1249C129.043 61.9062 130.84 59.4625 133.197 57.7948C133.657 57.5068 134.391 57.2052 135.397 56.8891C136.401 56.574 137.424 56.5297 138.457 56.7593C139.493 56.9896 140.327 57.7385 140.96 59.0016" fill="#9A7D5A"/>
<path d="M178.224 72.7161L178.309 72.5426C177.045 72.6578 175.493 73.1333 173.653 73.9661C171.812 74.8 170.232 75.7926 168.909 76.9416C167.585 78.0921 167.04 79.2421 167.271 80.3932C167.327 80.5088 167.472 80.6068 167.701 80.6937C167.931 80.7812 168.161 80.8369 168.392 80.8656C168.621 80.8942 168.793 80.8786 168.909 80.8229C171.093 80.651 173.007 79.7458 174.645 78.1057C176.284 76.4666 177.476 74.6702 178.224 72.7161V72.7161ZM207.291 7.33865C207.405 5.55599 207.088 4.21864 206.343 3.32664C205.593 2.43731 204.3 2.24931 202.46 2.76665C200.275 3.57331 198.148 5.16798 196.077 7.55198C194.009 9.93865 192.369 11.996 191.161 13.72C189.148 16.596 186.992 20.1026 184.693 24.2432C180.84 31.0869 176.787 39.6828 172.532 50.0317C170.748 54.4016 168.965 59.0885 167.184 64.0896C172.243 60.0656 178.799 53.6541 186.849 44.8557C191.391 39.9703 195.791 34.1906 200.045 27.5208C204.3 20.85 206.715 14.1227 207.291 7.33865V7.33865ZM200.823 0.438652C203.696 -0.366681 205.68 -0.0786861 206.773 1.29998C207.865 2.67998 208.325 4.66398 208.153 7.25065C207.636 14.2666 205.22 21.1249 200.908 27.8213C196.596 34.5208 192.08 40.3724 187.367 45.3735C178.625 54.8609 171.756 61.5328 166.753 65.3838C165.891 67.8578 165.028 70.4166 164.165 73.0598C164.969 71.5656 166.421 69.7536 168.521 67.626C170.62 65.5 172.847 64.0896 175.205 63.401C177.677 62.9412 179.475 63.5453 180.596 65.212C181.717 66.8806 182.075 68.8636 181.675 71.164C182.133 71.1057 182.593 71.0765 183.055 71.0765C186.101 70.8469 189.105 70.3426 192.068 69.5666C195.028 68.7901 198.493 66.9093 202.46 63.9177L203.581 63.8312C199.384 67.0526 195.761 69.1073 192.715 69.9989C189.667 70.8912 186.275 71.4802 182.536 71.7661C182.191 71.824 181.847 71.8817 181.503 71.9401C180.927 74.9874 179.517 77.5166 177.276 79.5297C175.033 81.5416 172.717 82.7484 170.333 83.1521C167.947 83.553 166.235 82.8645 165.2 81.0817C164.855 79.474 165.473 77.9765 167.055 76.5964C168.635 75.2172 170.563 74.0817 172.833 73.189C175.104 72.2994 177.017 71.7973 178.568 71.6812C179.087 69.9546 179.143 68.4021 178.741 67.0234C178.34 65.6421 177.189 64.8969 175.291 64.7812C173.279 64.953 171.381 66.0615 169.599 68.1005C167.816 70.1421 166.291 72.413 165.028 74.9156C163.763 77.4166 162.9 79.4426 162.44 80.9942C162.096 81.9724 161.476 82.677 160.587 83.1093C159.695 83.5401 158.876 83.5688 158.128 83.1953C157.381 82.8202 157.008 81.8864 157.008 80.3932C157.524 76.4822 159.235 70.503 162.139 62.4521C165.041 54.4016 168.693 45.8645 173.092 36.8364C177.492 27.8083 182.12 19.8729 186.979 13.0306C191.837 6.18798 196.452 1.99065 200.823 0.438652Z" fill="#9A7D5A"/>
<path d="M207.467 62.3656C221.555 47.7604 231.415 36.7489 237.051 29.3317C240.731 24.5016 243.375 20.1901 244.985 16.3933C246.539 12.772 246.653 10.156 245.332 8.5453C244.985 8.19997 244.455 7.95597 243.735 7.81197C243.016 7.66797 242.111 8.02798 241.017 8.89065C236.015 13.4906 230.755 19.9598 225.235 28.2969H225.321L223.681 30.539C222.648 32.2073 221.856 33.4432 221.311 34.2484C220.763 35.0536 220.433 35.5713 220.319 35.801C220.145 36.1448 219.944 36.4906 219.715 36.8364L218.248 39.165C217.156 41.0057 216.235 42.6136 215.488 43.9942L215.747 43.736L214.54 45.8062L214.453 45.8912L214.108 46.4088C213.992 46.5822 213.905 46.7828 213.849 47.013C212.699 49.1412 211.233 52.389 209.451 56.7593C208.703 58.6 208.041 60.4672 207.467 62.3656ZM207.123 63.4874C206.489 65.6156 206.001 67.7125 205.656 69.7828C204.849 74.1526 205.353 77.388 207.165 79.4869C208.976 81.5844 212.901 81.3969 218.939 78.9245C223.537 76.9125 227.836 74.4984 231.833 71.6812C235.829 68.8636 238.488 66.8229 239.811 65.5578C239.867 65.5 239.941 65.4702 240.027 65.4702C240.113 65.4702 240.213 65.5 240.329 65.5578C240.385 65.6734 240.415 65.7718 240.415 65.8593C240.415 65.9458 240.385 66.0172 240.329 66.0754C238.948 67.3401 236.244 69.3948 232.221 72.2412C228.196 75.0874 223.883 77.5458 219.284 79.6156C212.44 82.376 207.739 82.764 205.181 80.7812C202.623 78.7953 201.472 75.563 201.732 71.0765C201.991 66.5926 202.909 61.977 204.492 57.2344C206.071 52.4901 207.611 48.7374 209.105 45.9781C210.083 44.0797 211.145 42.0401 212.296 39.8546L213.505 37.6969C214.827 35.6276 216.148 33.414 217.472 31.0562L218.852 28.986C218.908 28.8724 218.967 28.7849 219.024 28.727C224.256 20.1026 229.892 13.116 235.929 7.76931C236.907 7.02131 238.201 6.47463 239.811 6.1293C240.788 5.9573 241.68 5.92797 242.485 6.0453C243.748 6.33197 244.9 6.9933 245.935 8.02797C247.429 9.86797 247.343 12.772 245.677 16.7386C244.008 20.5333 241.335 24.8765 237.655 29.762C231.791 37.4693 221.613 48.7109 207.123 63.4874Z" fill="#9A7D5A"/>
<path d="M248.353 61.2432C247.26 61.9926 246.24 62.912 245.291 64.0052C244.344 65.0978 243.667 66.276 243.265 67.5406C243.611 66.5057 243.999 65.8297 244.429 65.5136C244.86 65.1984 245.277 65.0536 245.68 65.0822C246.081 65.112 246.457 65.212 246.8 65.3839C246.973 65.4416 247.131 65.5 247.276 65.5579C247.417 65.6156 247.548 65.6156 247.664 65.5579C249.044 64.8104 250.079 63.9912 250.769 63.0994C251.459 62.2068 251.803 61.4598 251.803 60.8552C251.803 60.253 251.487 60.0079 250.855 60.1235C250.108 60.2953 249.273 60.6697 248.353 61.2432V61.2432ZM253.271 59.0016C253.788 60.612 253.327 62.1645 251.889 63.6593C250.452 65.1562 248.813 66.3473 246.973 67.2396C245.132 68.1302 243.839 68.5182 243.092 68.4021C243.035 68.6916 243.007 68.95 243.007 69.1781C243.007 69.4098 243.007 69.6693 243.007 69.9546C243.121 71.0478 243.465 71.9109 244.041 72.5426C245.939 74.6125 248.741 75.5052 252.451 75.2172C256.16 74.9297 260.041 73.6082 264.095 71.2484C268.148 68.8921 271.411 66.7932 273.884 64.953C273.999 64.8969 274.1 64.8661 274.185 64.8661C274.272 64.8661 274.344 64.9245 274.401 65.0401C274.457 65.0979 274.473 65.1828 274.444 65.2984C274.415 65.4145 274.372 65.5 274.315 65.5579C271.556 67.5703 267.891 69.8254 263.317 72.3276C258.747 74.8286 254.392 76.2526 250.251 76.5964C246.112 76.9416 243.035 76.051 241.021 73.9229C239.183 71.2797 238.881 68.3464 240.117 65.1249C241.352 61.9062 243.149 59.4625 245.508 57.7948C245.967 57.5068 246.7 57.2052 247.707 56.8891C248.712 56.574 249.735 56.5297 250.769 56.7593C251.803 56.9896 252.636 57.7385 253.271 59.0016" fill="#9A7D5A"/>
<path d="M256.003 87.9817C253.645 90.0521 252.869 91.6912 253.675 92.8984C254.48 94.1052 256.003 95.1693 258.245 96.0885C261.868 97.6989 265.936 98.2874 270.451 97.8578C274.963 97.427 279.335 96.4349 283.56 94.8812C287.787 93.3292 291.249 91.6041 293.953 89.7068C297.059 87.4645 299.056 84.9202 299.948 82.074C300.839 79.2276 300.105 76.1093 297.748 72.7161C297.748 72.6578 297.719 72.6005 297.663 72.5426C297.604 72.4869 297.547 72.3994 297.489 72.2833C288.633 74.9297 280.124 77.7333 271.959 80.6937C263.793 83.6546 258.475 86.0833 256.003 87.9817V87.9817ZM256.78 98.9349C254.019 97.5557 252.367 95.7588 251.82 93.5453C251.273 91.3306 252.208 89.1041 254.624 86.8593C257.153 84.9636 262.629 82.6052 271.055 79.7875C279.476 76.9702 288.117 74.2688 296.971 71.6812C294.615 68.8057 291.323 65.5442 287.096 61.8906C282.869 58.2406 278.715 54.7188 274.633 51.3254C270.78 48.164 267.791 45.6328 265.664 43.736C262.269 40.6885 259.827 37.4964 258.332 34.1609C256.837 30.8286 257.469 27.5494 260.229 24.3276C263.621 20.9953 268.84 18.365 275.884 16.4386C282.927 14.5106 290.359 13.232 298.18 12.5986C306.172 12.0253 313.144 12.1253 319.095 12.9026C325.047 13.676 328.54 15.1306 329.575 17.256C330.493 19.3844 329.976 21.4391 328.021 23.4224C326.067 25.4079 322.3 27.4068 316.724 29.4182C315.629 29.7062 314.667 29.5036 313.835 28.814C313 28.1249 312.54 27.3193 312.455 26.3984C312.367 25.4792 312.871 24.7896 313.963 24.3276C316.379 23.5249 318.449 22.8338 320.173 22.2582C322.817 21.4546 324.659 20.75 325.693 20.1458C326.728 19.5426 327.015 18.7224 326.556 17.6874C325.923 16.884 322.703 16.2373 316.896 15.7466C311.087 15.26 304.303 15.2146 296.541 15.616C288.779 16.0213 281.663 17.128 275.193 18.9385C268.725 20.75 264.513 23.5093 262.559 27.2193C260.603 30.927 262.528 35.8297 268.337 41.9245C272.707 46.2369 277.307 50.3478 282.136 54.2588C286.564 57.8812 290.847 61.676 294.988 65.6421C296.769 67.427 298.293 69.2093 299.56 70.9901L303.699 69.7828C311.175 67.5989 315.976 66.1333 318.104 65.3839C318.16 65.3276 318.233 65.3125 318.319 65.3416C318.404 65.3703 318.476 65.4416 318.535 65.5579C318.591 65.6156 318.591 65.7 318.535 65.8161C318.476 65.9322 318.419 65.988 318.363 65.988C316.348 66.7354 311.777 68.1437 304.648 70.2136C304.417 70.2713 304.159 70.3583 303.872 70.4724L299.991 71.5942C302.692 75.6208 303.527 79.3276 302.492 82.7213C301.457 86.112 299.099 89.1041 295.42 91.6912C292.716 93.5885 289.036 95.3994 284.38 97.1234C279.723 98.85 274.892 99.9844 269.889 100.532C264.887 101.077 260.515 100.545 256.78 98.9349" fill="#9A7D5A"/>
<path d="M342.047 17.7297C342.108 16.9267 342.403 16.3853 342.927 16.1067C343.452 15.8293 343.977 15.8147 344.504 16.0613C345.027 16.308 345.292 16.8027 345.292 17.5443C345.167 18.3473 344.92 19.1667 344.549 20.0005C344.179 20.8349 343.745 21.6073 343.252 22.3183C342.756 23.0287 342.171 23.8161 341.491 24.6812C341.243 24.9287 340.949 25.0063 340.611 24.9131C340.271 24.8208 340.008 24.6511 339.823 24.4036C339.636 24.1568 339.636 23.8473 339.823 23.4765C339.883 23.4765 340.068 23.1833 340.379 22.5964C340.687 22.0088 341.012 21.2672 341.351 20.3713C341.689 19.4749 341.921 18.5948 342.047 17.7297" fill="#9A7D5A"/>
</svg>
