<svg width="40" height="41" viewBox="0 0 40 41" fill="none" xmlns="http://www.w3.org/2000/svg">
<path d="M20 21.6802C22.7614 21.6802 25 19.4416 25 16.6802C25 13.9188 22.7614 11.6802 20 11.6802C17.2386 11.6802 15 13.9188 15 16.6802C15 19.4416 17.2386 21.6802 20 21.6802Z" stroke="#6E6259" stroke-width="1.66667" stroke-linecap="round" stroke-linejoin="round"/>
<path d="M20 36.1805C28.8333 28.3472 33.3333 21.6805 33.3333 16.6805C33.3333 13.1443 31.9286 9.7529 29.4281 7.25241C26.9276 4.75193 23.5362 3.34717 20 3.34717C16.4638 3.34717 13.0724 4.75193 10.5719 7.25241C8.07143 9.7529 6.66667 13.1443 6.66667 16.6805C6.66667 21.6805 11.1667 28.1805 20 36.1805Z" stroke="#6E6259" stroke-width="1.66667" stroke-linecap="round" stroke-linejoin="round"/>
</svg>
