<svg width="40" height="41" viewBox="0 0 40 41" fill="none" xmlns="http://www.w3.org/2000/svg">
<path d="M36.6667 28.2135V33.2135C36.6686 33.6777 36.5735 34.1371 36.3875 34.5624C36.2016 34.9877 35.9288 35.3695 35.5868 35.6833C35.2448 35.9971 34.841 36.236 34.4012 36.3847C33.9615 36.5334 33.4956 36.5886 33.0333 36.5468C27.9047 35.9896 22.9783 34.2371 18.65 31.4302C14.623 28.8713 11.2089 25.4571 8.65 21.4302C5.8333 17.0822 4.08041 12.1318 3.53333 6.98017C3.49168 6.51929 3.54646 6.05478 3.69417 5.61622C3.84188 5.17766 4.07929 4.77466 4.39128 4.43288C4.70327 4.0911 5.08301 3.81802 5.50632 3.63104C5.92963 3.44407 6.38723 3.34728 6.85 3.34684H11.85C12.6588 3.33888 13.443 3.62531 14.0563 4.15273C14.6696 4.68015 15.0701 5.41259 15.1833 6.21351C15.3944 7.81362 15.7858 9.38472 16.35 10.8968C16.5742 11.4934 16.6228 12.1417 16.4898 12.765C16.3569 13.3883 16.0481 13.9604 15.6 14.4135L13.4833 16.5302C15.8559 20.7027 19.3108 24.1576 23.4833 26.5302L25.6 24.4135C26.0531 23.9654 26.6253 23.6566 27.2485 23.5237C27.8718 23.3907 28.5201 23.4393 29.1167 23.6635C30.6288 24.2278 32.1999 24.6191 33.8 24.8302C34.6096 24.9444 35.349 25.3522 35.8776 25.976C36.4061 26.5998 36.6869 27.3961 36.6667 28.2135Z" stroke="#6E6259" stroke-width="1.66667" stroke-linecap="round" stroke-linejoin="round"/>
</svg>
